<svg version="1.1" id="Camada_1" xmlns="http://www.w3.org/2000/svg" x="0" y="0" viewBox="0 0 902 176.9" xml:space="preserve"><style>.st1{fill:#ed9c70}.st4{fill:#fff}</style><path class="st4" d="M0 0h25.1v132.7H0zM134.2 56.9c-1.2-4.4-3.1-8.6-5.8-12.7-2.7-4.1-6.6-7.4-11.5-10-4.9-2.6-11.3-4-19.1-4-9.8 0-17.9 2.1-24.3 6.4-3 2-5.7 4.3-8 6.9V33.2H43.3v99.5h25.4V82.2c0-6.2.7-11.2 2.1-14.9 1.4-3.7 3.1-6.6 5.3-8.5 2.1-1.9 4.5-3.2 6.9-3.9 2.5-.7 4.8-1 6.9-1 5.3 0 9.5 1.2 12.4 3.6 2.9 2.4 5 5.4 6.3 8.9 1.3 3.6 2.1 7.1 2.3 10.6.2 3.5.4 6.4.4 8.7v47h25.4V76.8c0-1.7-.1-4.3-.4-7.9-.2-3.6-.9-7.6-2.1-12zM182.4 5.5h-25.1v27.6h-17v19.3h17v38c0 6 .1 11.3.2 16 .1 4.7 1.4 9.3 3.9 13.9 2.7 4.9 6.6 8.4 11.8 10.5 5.2 2.2 11.1 3.3 17.7 3.5 6.6.2 13.3-.4 20.2-1.7v-20.8c-5.9.8-11.3 1-16.1.7-4.9-.3-8.4-2.2-10.6-5.7-1.2-1.8-1.8-4.3-1.9-7.4-.1-3.1-.1-6.6-.1-10.5V52.5h28.7V33.2h-28.7V5.5zM289.9 37.8c-7.3-4.9-16.2-7.4-26.6-7.4-9.8 0-18.5 2.2-26.1 6.7-7.6 4.5-13.5 10.7-17.8 18.7-4.3 8-6.4 17.5-6.4 28.4 0 9.9 2.2 18.8 6.6 26.5 4.4 7.7 10.5 13.8 18.2 18.1 7.8 4.4 16.8 6.6 26.9 6.6 9.6 0 18.4-2.5 26.5-7.6 8.1-5 14-12.1 17.7-21.2l-25.1-7.2c-1.8 4.1-4.5 7.2-8 9.3-3.5 2.1-7.7 3.2-12.6 3.2-7.8 0-13.7-2.5-17.7-7.6-2.9-3.7-4.8-8.6-5.6-14.5h69.8c1-12-.2-22.5-3.7-31.4-3.4-8.8-8.8-15.7-16.1-20.6zm-25.5 14.3c7.3 0 12.6 2.2 15.8 6.7 2.1 2.9 3.5 7.1 4.3 12.5h-43.7c1-4.6 2.6-8.4 4.8-11.4 4-5.2 10.3-7.8 18.8-7.8zM370.7 32.9c-3 .2-5.9.7-8.8 1.6-2.8.8-5.4 2-7.8 3.5-3.1 1.8-5.8 4.2-7.9 7-1 1.3-1.9 2.8-2.8 4.3v-16h-22.1v99.5h25.2v-51c0-3.8.5-7.2 1.6-10.3 1-3 2.6-5.7 4.6-7.9 2-2.2 4.5-4 7.5-5.4 2.9-1.4 6.2-2.3 9.9-2.5 3.7-.3 6.9 0 9.6.9V33.2c-3-.4-6-.5-9-.3zM522.6 83.7c0 6.1-.7 11.1-2.1 14.9-1.4 3.8-3.1 6.6-5.3 8.6-2.2 1.9-4.5 3.2-6.9 3.9-2.5.7-4.8 1-6.9 1-5.3 0-9.5-1.2-12.4-3.6-2.9-2.4-5-5.4-6.3-8.9-1.3-3.6-2.1-7.1-2.3-10.6-.2-3.5-.4-6.4-.4-8.7v-47h-25.4V89c0 1.7.1 4.3.4 7.9.2 3.6 1 7.6 2.1 12 1.2 4.4 3.1 8.6 5.9 12.7 2.7 4.1 6.6 7.4 11.5 10 4.9 2.6 11.3 4 19.1 4 9.8 0 17.9-2.1 24.3-6.4 3-2 5.7-4.3 8-6.9v10.3H548V33.2h-25.2v50.5zM635 37.2c-7.1-4.5-15.4-6.8-24.9-6.8-9.5 0-17.4 2.3-23.9 6.9-.6.4-1.2 1-1.8 1.5v-5.6h-22.1v143.7h25.2v-47.8c6.5 4.2 14.4 6.3 23.8 6.3 9.2 0 17.2-2.3 24-6.9 6.9-4.6 12.2-10.9 16.1-18.8 3.8-7.9 5.8-16.9 5.8-26.8 0-10.1-2-19.1-5.9-27-3.7-7.9-9.2-14.1-16.3-18.7zm-6.7 61c-1.7 4.6-4.2 8.2-7.6 10.9-3.4 2.7-7.9 4.1-13.3 4.1-5.6 0-10.1-1.3-13.4-3.8-3.3-2.5-5.8-6-7.2-10.6-1.5-4.5-2.2-9.8-2.2-15.8s.7-11.3 2.2-15.8c1.5-4.5 3.8-8.1 7-10.6s7.4-3.8 12.7-3.8c5.6 0 10.2 1.4 13.8 4.1 3.6 2.7 6.2 6.4 8 11 1.7 4.6 2.6 9.6 2.6 15.2-.1 5.4-.9 10.5-2.6 15.1zM699.3 5.5h-25.1v27.6h-17v19.3h17v38c0 6 .1 11.3.2 16 .1 4.7 1.4 9.3 3.9 13.9 2.7 4.9 6.6 8.4 11.8 10.5 5.2 2.2 11.1 3.3 17.7 3.5 6.6.2 13.3-.4 20.2-1.7v-20.8c-5.9.8-11.3 1-16.1.7-4.9-.3-8.4-2.2-10.6-5.7-1.2-1.8-1.8-4.3-1.9-7.4-.1-3.1-.1-6.6-.1-10.5V52.5H728V33.2h-28.7V5.5zM806.6 37.1c-7.6-4.5-16.4-6.7-26.4-6.7-9.8 0-18.5 2.2-26.1 6.6-7.6 4.4-13.5 10.6-17.8 18.5-4.3 7.9-6.4 17-6.4 27.4 0 10.3 2.1 19.3 6.3 27.2 4.2 7.9 10.1 14.1 17.6 18.6 7.6 4.5 16.3 6.7 26.3 6.7s18.7-2.2 26.3-6.7c7.6-4.5 13.5-10.6 17.8-18.5 4.3-7.9 6.4-17 6.4-27.3s-2.1-19.3-6.4-27.2c-4.1-7.9-10-14.1-17.6-18.6zm-8.4 66.8c-4 5.4-10 8.2-18 8.2-7.8 0-13.7-2.6-17.7-7.9-4-5.3-6-12.3-6-21.2 0-5.8.8-10.8 2.5-15.2 1.7-4.4 4.3-7.8 7.8-10.2 3.5-2.5 8-3.7 13.5-3.7 7.9 0 13.9 2.6 17.9 7.9 4 5.3 6 12.3 6 21.2 0 8.5-2 15.4-6 20.9zM891.2 32.9c-3 .2-5.9.7-8.8 1.6-2.8.8-5.4 2-7.8 3.5-3.1 1.8-5.8 4.2-7.9 7-1 1.3-1.9 2.8-2.8 4.3v-16h-22.1v99.5H867v-51c0-3.8.5-7.2 1.6-10.3 1-3 2.6-5.7 4.6-7.9 2-2.2 4.5-4 7.5-5.4 2.9-1.4 6.2-2.3 9.9-2.5 3.7-.3 8.6 0 11.4.9V33.2c-3.1-.4-7.8-.5-10.8-.3z"/><g><path class="st1" d="M414.5 35.8v-2.6H388v23.6zM388 85.7v22.7h26.5V63z"/><path fill="#395e3f" d="M414.5 85.7H388l29.7-25.6h28.1z"/><path fill="#7972ab" d="M417.7 33.2v26.9L388 85.7V56.8z"/><path fill="#cbff00" d="M417.7 33.2h28.1v27h-28.1z"/></g></svg>
